<svg version="1.1" id="Layer_1" xmlns="http://www.w3.org/2000/svg" xmlns:xlink="http://www.w3.org/1999/xlink" x="0px" y="0px"
	 width="100%" viewBox="0 0 512 512" enable-background="new 0 0 512 512" xml:space="preserve">
<path fill="#042977" opacity="1.000000" stroke="none" 
	d="
M298.000000,513.000000 
	C270.979095,513.000000 243.958206,513.000000 216.504333,512.646240 
	C208.732193,507.824707 203.942688,501.500641 203.229996,492.839752 
	C202.712387,486.549469 202.857147,480.182617 203.078598,473.862915 
	C203.189560,470.696594 202.172501,469.168701 199.177017,468.074890 
	C192.179199,465.519653 185.252808,462.729614 178.460068,459.673370 
	C176.090927,458.607391 174.689911,458.635162 172.893372,460.534821 
	C168.659439,465.011658 164.263931,469.339813 159.843628,473.635345 
	C151.009949,482.219604 137.670120,482.153473 129.027206,473.521454 
	C113.938530,458.451813 98.858742,443.373291 83.790550,428.283173 
	C75.115662,419.595642 75.147728,406.475098 83.858604,397.653534 
	C87.955612,393.504456 91.982269,389.274445 96.267303,385.326965 
	C98.733162,383.055328 99.128090,381.135254 97.624306,377.994232 
	C94.482620,371.432007 91.703201,364.675232 89.177238,357.849518 
	C88.140404,355.047729 86.856056,353.864288 83.848961,353.947388 
	C77.522942,354.122162 71.186638,354.098053 64.858162,353.973114 
	C53.293007,353.744751 44.076256,344.414551 44.013298,332.924286 
	C43.958527,322.928406 44.160294,312.927399 43.871986,302.939514 
	C43.810917,300.823853 42.603973,298.269165 41.089443,296.749420 
	C34.575489,290.213043 30.756699,282.802338 30.935257,273.307404 
	C31.192080,259.650787 30.648170,245.971634 31.194014,232.332031 
	C31.383558,227.595688 33.036232,222.525375 35.353737,218.346970 
	C40.459667,209.141022 49.313740,205.109558 60.001156,203.485855 
	C60.001156,201.263016 59.919529,199.134628 60.015827,197.014328 
	C60.361904,189.394379 60.125381,181.678986 61.271698,174.177307 
	C64.750725,151.410019 71.850906,129.856796 83.525658,109.811852 
	C98.158272,84.688416 117.603249,64.268410 141.989075,48.591934 
	C156.409576,39.321686 171.798477,32.011635 188.338638,27.207296 
	C190.099121,26.695942 192.307907,24.954599 192.803787,23.325722 
	C195.463821,14.587713 200.733002,8.183928 208.575500,3.684083 
	C209.569717,3.113622 210.200714,1.910180 211.000000,1.000000 
	C241.354233,1.000000 271.708466,1.000000 302.490967,1.354538 
	C304.104980,2.553571 305.247681,3.467778 306.483643,4.231020 
	C313.386902,8.494041 317.930908,14.554457 321.010498,22.031918 
	C321.920013,24.240364 324.166626,26.827940 326.316437,27.445370 
	C340.624451,31.554642 353.919434,37.841431 366.678162,45.336720 
	C396.009583,62.567902 418.431519,86.463402 434.165314,116.532227 
	C447.530029,142.073471 454.401428,169.301147 454.014008,198.241684 
	C453.990234,200.019180 454.185211,201.799591 454.272644,203.469116 
	C472.624603,206.343842 484.472229,218.890396 483.146637,238.067520 
	C482.344238,249.675659 482.765839,261.390594 483.070923,273.046204 
	C483.325043,282.757538 479.377472,290.291595 472.711212,296.926666 
	C471.294403,298.336914 470.172150,300.731903 470.118225,302.706116 
	C469.854523,312.363037 470.007202,322.031097 469.995880,331.695221 
	C469.980499,344.785614 460.900513,353.933167 447.852203,353.993622 
	C442.020538,354.020630 436.185883,354.105927 430.358032,353.954956 
	C427.485901,353.880585 425.943848,354.736115 424.866425,357.647705 
	C422.282227,364.631378 419.420929,371.535187 416.227173,378.260254 
	C414.790344,381.285767 415.372192,383.072418 417.604126,385.178589 
	C421.964935,389.293671 426.056549,393.692719 430.378876,397.850220 
	C438.427216,405.591614 438.371002,420.657349 430.448120,428.241516 
	C415.165375,442.870819 400.112915,457.772217 385.587616,473.148987 
	C377.445709,481.768127 362.107697,482.234863 353.606934,473.129852 
	C348.843750,468.028107 343.947968,463.050171 339.451782,458.370148 
	C330.773254,461.836090 323.021088,465.159271 315.092560,467.988312 
	C311.855377,469.143433 310.702423,470.712860 310.929810,474.081116 
	C311.220978,478.393646 310.992920,482.740753 311.001190,487.072937 
	C311.020599,497.245361 308.593750,506.157837 298.694061,511.317566 
	C298.282288,511.532196 298.223328,512.423767 298.000000,513.000000 
M402.348572,359.454041 
	C403.625519,356.030975 404.921143,352.614716 406.175903,349.183533 
	C410.008331,338.704041 416.835907,333.787811 428.037079,333.604340 
	C433.696747,333.511597 439.367249,333.397095 445.017395,333.644897 
	C448.821686,333.811768 449.937561,332.330719 449.809845,328.685394 
	C449.576721,322.033417 449.444214,315.349152 449.847290,308.713470 
	C450.126068,304.123657 448.433594,303.203583 444.174438,303.226471 
	C412.872589,303.394745 381.569366,303.317413 350.266602,303.317444 
	C348.648163,303.317444 347.029694,303.317444 345.179779,303.317444 
	C344.083069,325.333221 336.054443,343.911011 321.504517,360.355499 
	C299.226959,383.243652 272.269135,392.214264 240.809631,386.937622 
	C221.470154,383.693817 205.493027,373.925293 191.632736,359.417145 
	C177.448364,343.598450 170.064880,324.938782 168.774887,303.914825 
	C167.983032,303.669525 167.515320,303.398254 167.047333,303.397736 
	C133.905090,303.360199 100.762802,303.362518 67.620659,303.292236 
	C64.937271,303.286530 64.198494,304.450836 64.227669,306.917480 
	C64.316315,314.411072 64.387131,321.909576 64.201454,329.399597 
	C64.116745,332.816498 65.609833,333.689026 68.692261,333.619659 
	C74.684753,333.484772 80.685631,333.473541 86.677704,333.623596 
	C97.083527,333.884094 103.829063,338.776611 107.539055,348.467407 
	C109.020851,352.337982 110.568794,356.183197 112.106308,360.758484 
	C113.639542,364.075165 115.149323,367.402924 116.710297,370.706512 
	C121.859032,381.602936 120.503914,389.905060 112.026283,398.404572 
	C107.239487,403.203735 102.328743,407.879242 98.010788,412.087158 
	C113.952171,428.047241 129.305008,443.418091 145.192139,459.323853 
	C149.564575,454.876190 154.273407,449.991058 159.086929,445.211365 
	C167.364838,436.991608 175.810181,435.682373 186.387512,440.470123 
	C193.339676,443.616882 200.403427,446.548309 207.543289,449.242035 
	C218.930405,453.538208 223.850143,460.362915 223.897797,472.657349 
	C223.923401,479.263855 223.902328,485.870605 223.902328,492.650330 
	C246.233826,492.650330 267.929626,492.650330 290.099396,492.650330 
	C290.099396,485.351288 290.034698,478.390350 290.114380,471.431091 
	C290.237946,460.633484 295.242157,453.720398 305.293793,449.757751 
	C313.168945,446.653107 320.982330,443.380249 328.738708,439.988922 
	C338.059937,435.913330 346.609711,437.228363 354.017426,444.312927 
	C358.228546,448.340271 362.433899,452.395264 366.344635,456.707336 
	C368.824341,459.441467 370.436584,459.515381 373.104553,456.796021 
	C386.632263,443.007507 400.363647,429.418884 414.007385,415.744019 
	C414.793488,414.956146 415.436157,414.025146 416.460846,412.776611 
	C411.339844,407.697235 406.343140,402.847656 401.466644,397.880066 
	C393.619507,389.886230 392.292053,381.668793 396.972382,371.418732 
	C398.689606,367.657959 400.269684,363.834595 402.348572,359.454041 
M185.500275,224.439499 
	C144.834229,224.439896 104.168167,224.422745 63.502151,224.454529 
	C54.634808,224.461456 51.101192,228.059586 51.077759,236.909286 
	C51.049072,247.742386 51.066998,258.575623 51.071533,269.408813 
	C51.076115,280.346741 54.047409,283.328278 64.997978,283.330414 
	C101.497444,283.337463 137.996902,283.333130 174.496368,283.333099 
	C266.161682,283.333099 357.827026,283.336487 449.492340,283.328247 
	C459.767883,283.327301 462.917603,280.159271 462.927246,269.915833 
	C462.936951,259.582642 462.931274,249.249466 462.929199,238.916275 
	C462.926910,227.366653 460.016449,224.441086 448.496460,224.440781 
	C361.164398,224.438492 273.832336,224.439545 185.500275,224.439499 
M212.384460,152.499756 
	C212.384460,169.620193 212.384460,186.740616 212.384460,204.113403 
	C242.326172,204.113403 271.711487,204.113403 301.259857,204.113403 
	C301.399200,202.841385 301.598328,201.870987 301.598602,200.900528 
	C301.614166,144.928955 301.638153,88.957352 301.587036,32.985817 
	C301.579315,24.537735 297.798767,21.015303 289.193604,21.006821 
	C268.204254,20.986128 247.214920,20.997580 226.225571,21.000942 
	C215.434189,21.002670 212.389114,24.085321 212.387177,35.058861 
	C212.380310,73.872490 212.384491,112.686111 212.384460,152.499756 
M80.130264,196.576218 
	C80.130264,199.030151 80.130264,201.484085 80.130264,204.148697 
	C117.704590,204.148697 154.770187,204.148697 192.072906,204.148697 
	C192.072906,151.990509 192.072906,100.115036 192.072906,48.156384 
	C141.770187,61.844090 82.415375,114.024734 80.130264,196.576218 
M405.969452,109.575981 
	C384.982483,79.595543 357.124817,59.050137 321.974854,47.651485 
	C321.974854,100.312317 321.974854,152.175797 321.974854,204.108337 
	C359.374847,204.108337 396.419647,204.108337 433.879669,204.108337 
	C434.364563,169.706757 425.569489,138.435272 405.969452,109.575981 
M222.372253,358.143555 
	C231.771515,364.241486 242.234253,367.464233 253.266418,367.893097 
	C277.775330,368.845795 297.513306,359.057404 311.944580,339.349731 
	C319.450836,329.099030 324.076447,317.492462 324.135437,304.291870 
	C279.168060,304.291870 234.595200,304.291870 189.510254,304.291870 
	C191.477158,327.756927 202.530624,345.224762 222.372253,358.143555 
z"/>
<path fill="#D1DBFE" opacity="1.000000" stroke="none" 
	d="
M191.906494,360.018860 
	C205.493027,373.925293 221.470154,383.693817 240.809631,386.937622 
	C272.269135,392.214264 299.226959,383.243652 322.255951,360.196228 
	C349.309021,360.037903 375.610687,360.038818 401.912323,360.039764 
	C400.269684,363.834595 398.689606,367.657959 396.972382,371.418732 
	C392.292053,381.668793 393.619507,389.886230 401.466644,397.880066 
	C406.343140,402.847656 411.339844,407.697235 416.460846,412.776611 
	C415.436157,414.025146 414.793488,414.956146 414.007385,415.744019 
	C400.363647,429.418884 386.632263,443.007507 373.104553,456.796021 
	C370.436584,459.515381 368.824341,459.441467 366.344635,456.707336 
	C362.433899,452.395264 358.228546,448.340271 354.017426,444.312927 
	C346.609711,437.228363 338.059937,435.913330 328.738708,439.988922 
	C320.982330,443.380249 313.168945,446.653107 305.293793,449.757751 
	C295.242157,453.720398 290.237946,460.633484 290.114380,471.431091 
	C290.034698,478.390350 290.099396,485.351288 290.099396,492.650330 
	C267.929626,492.650330 246.233826,492.650330 223.902328,492.650330 
	C223.902328,485.870605 223.923401,479.263855 223.897797,472.657349 
	C223.850143,460.362915 218.930405,453.538208 207.543289,449.242035 
	C200.403427,446.548309 193.339676,443.616882 186.387512,440.470123 
	C175.810181,435.682373 167.364838,436.991608 159.086929,445.211365 
	C154.273407,449.991058 149.564575,454.876190 145.192139,459.323853 
	C129.305008,443.418091 113.952171,428.047241 98.010788,412.087158 
	C102.328743,407.879242 107.239487,403.203735 112.026283,398.404572 
	C120.503914,389.905060 121.859032,381.602936 116.710297,370.706512 
	C115.149323,367.402924 113.639542,364.075165 112.559433,360.387817 
	C139.310532,360.017731 165.608521,360.018280 191.906494,360.018860 
z"/>
<path fill="#FCCB42" opacity="1.000000" stroke="none" 
	d="
M186.000275,224.439514 
	C273.832336,224.439545 361.164398,224.438492 448.496460,224.440781 
	C460.016449,224.441086 462.926910,227.366653 462.929199,238.916275 
	C462.931274,249.249466 462.936951,259.582642 462.927246,269.915833 
	C462.917603,280.159271 459.767883,283.327301 449.492340,283.328247 
	C357.827026,283.336487 266.161682,283.333099 174.496368,283.333099 
	C137.996902,283.333130 101.497444,283.337463 64.997978,283.330414 
	C54.047409,283.328278 51.076115,280.346741 51.071533,269.408813 
	C51.066998,258.575623 51.049072,247.742386 51.077759,236.909286 
	C51.101192,228.059586 54.634808,224.461456 63.502151,224.454529 
	C104.168167,224.422745 144.834229,224.439896 186.000275,224.439514 
z"/>
<path fill="#FD8F01" opacity="1.000000" stroke="none" 
	d="
M212.384476,151.999756 
	C212.384491,112.686111 212.380310,73.872490 212.387177,35.058861 
	C212.389114,24.085321 215.434189,21.002670 226.225571,21.000942 
	C247.214920,20.997580 268.204254,20.986128 289.193604,21.006821 
	C297.798767,21.015303 301.579315,24.537735 301.587036,32.985817 
	C301.638153,88.957352 301.614166,144.928955 301.598602,200.900528 
	C301.598328,201.870987 301.399200,202.841385 301.259857,204.113403 
	C271.711487,204.113403 242.326172,204.113403 212.384460,204.113403 
	C212.384460,186.740616 212.384460,169.620193 212.384476,151.999756 
z"/>
<path fill="#FDCC42" opacity="1.000000" stroke="none" 
	d="
M80.137474,196.103256 
	C82.415375,114.024734 141.770187,61.844090 192.072906,48.156384 
	C192.072906,100.115036 192.072906,151.990509 192.072906,204.148697 
	C154.770187,204.148697 117.704590,204.148697 80.130264,204.148697 
	C80.130264,201.484085 80.130264,199.030151 80.137474,196.103256 
z"/>
<path fill="#FDCC42" opacity="1.000000" stroke="none" 
	d="
M406.166046,109.877045 
	C425.569489,138.435272 434.364563,169.706757 433.879669,204.108337 
	C396.419647,204.108337 359.374847,204.108337 321.974854,204.108337 
	C321.974854,152.175797 321.974854,100.312317 321.974854,47.651485 
	C357.124817,59.050137 384.982483,79.595543 406.166046,109.877045 
z"/>

<path fill="#90AFF4" opacity="1.000000" stroke="none" 
	d="
M402.130432,359.746887 
	C375.610687,360.038818 349.309021,360.037903 322.545166,360.026001 
	C336.054443,343.911011 344.083069,325.333221 345.179779,303.317444 
	C347.029694,303.317444 348.648163,303.317444 350.266602,303.317444 
	C381.569366,303.317413 412.872589,303.394745 444.174438,303.226471 
	C448.433594,303.203583 450.126068,304.123657 449.847290,308.713470 
	C449.444214,315.349152 449.576721,322.033417 449.809845,328.685394 
	C449.937561,332.330719 448.821686,333.811768 445.017395,333.644897 
	C439.367249,333.397095 433.696747,333.511597 428.037079,333.604340 
	C416.835907,333.787811 410.008331,338.704041 406.175903,349.183533 
	C404.921143,352.614716 403.625519,356.030975 402.130432,359.746887 
z"/>
<path fill="#90AFF4" opacity="1.000000" stroke="none" 
	d="
M191.769623,359.718018 
	C165.608521,360.018280 139.310532,360.017731 112.549591,360.028564 
	C110.568794,356.183197 109.020851,352.337982 107.539055,348.467407 
	C103.829063,338.776611 97.083527,333.884094 86.677704,333.623596 
	C80.685631,333.473541 74.684753,333.484772 68.692261,333.619659 
	C65.609833,333.689026 64.116745,332.816498 64.201454,329.399597 
	C64.387131,321.909576 64.316315,314.411072 64.227669,306.917480 
	C64.198494,304.450836 64.937271,303.286530 67.620659,303.292236 
	C100.762802,303.362518 133.905090,303.360199 167.047333,303.397736 
	C167.515320,303.398254 167.983032,303.669525 168.774887,303.914825 
	C170.064880,324.938782 177.448364,343.598450 191.769623,359.718018 
z"/>
</svg>