<?xml version="1.0" standalone="no"?>
<!DOCTYPE svg PUBLIC "-//W3C//DTD SVG 20010904//EN"
 "http://www.w3.org/TR/2001/REC-SVG-20010904/DTD/svg10.dtd">
<svg version="1.0" xmlns="http://www.w3.org/2000/svg"
 width="512.000000pt" height="512.000000pt" viewBox="0 0 512.000000 512.000000"
 preserveAspectRatio="xMidYMid meet">

<g transform="translate(0.000000,512.000000) scale(0.100000,-0.100000)"
fill="#000000" stroke="none">
<path d="M2145 5111 c-50 -13 -108 -47 -147 -88 -36 -37 -77 -113 -78 -143 0
-11 -32 -26 -102 -49 -593 -190 -1063 -717 -1188 -1329 -20 -103 -40 -282 -40
-369 0 -49 -2 -53 -23 -53 -84 0 -198 -82 -238 -172 -23 -52 -24 -60 -24 -318
l0 -265 28 -57 c15 -31 43 -70 61 -86 l34 -30 4 -198 c3 -180 5 -203 25 -239
50 -94 99 -115 270 -115 70 0 133 -4 139 -8 5 -4 21 -36 33 -72 13 -36 39 -99
57 -140 l35 -74 -95 -96 c-52 -52 -102 -112 -111 -132 -19 -48 -19 -108 0
-156 19 -46 503 -534 557 -563 45 -23 124 -25 175 -4 20 8 78 57 130 107 90
88 95 92 121 81 15 -7 80 -33 145 -60 l117 -48 0 -134 c0 -116 3 -141 21 -178
25 -51 76 -96 128 -112 55 -16 709 -15 765 1 53 16 121 84 135 134 6 22 11 95
11 164 l0 125 118 48 c64 27 129 53 144 60 26 11 31 7 121 -81 52 -50 110 -99
130 -107 51 -21 130 -19 177 5 22 11 149 130 285 265 254 253 284 292 285 365
0 78 -18 111 -121 216 l-99 100 34 75 c18 41 44 103 57 139 12 36 28 68 33 72
6 4 69 8 139 8 171 0 220 21 270 115 20 36 22 59 25 235 l4 195 40 43 c80 87
83 102 83 402 0 255 -1 267 -23 315 -42 91 -128 159 -215 171 l-47 7 0 51 c0
86 -20 266 -40 368 -50 246 -167 502 -322 708 -217 287 -532 514 -865 622 -70
22 -103 38 -103 48 -1 30 -42 106 -78 143 -20 21 -59 51 -87 65 l-50 27 -405
2 c-223 1 -418 -2 -435 -6z m805 -206 c16 -8 34 -24 40 -34 7 -13 10 -315 10
-900 l0 -881 -440 0 -440 0 0 881 c0 582 3 887 10 899 25 47 42 49 428 50 305
0 368 -2 392 -15z m-1040 -1035 l0 -780 -562 0 -561 0 7 113 c22 379 155 709
395 981 168 191 398 350 631 437 41 15 78 28 83 29 4 0 7 -351 7 -780z m1394
750 c564 -217 955 -730 1016 -1329 5 -57 10 -125 10 -152 l0 -49 -560 0 -560
0 0 780 c0 429 3 780 8 780 4 0 43 -14 86 -30z m1267 -1750 c43 -24 49 -57 49
-280 0 -223 -6 -256 -49 -280 -27 -14 -3995 -14 -4022 0 -43 24 -49 57 -49
280 0 221 6 255 47 279 25 14 3997 15 4024 1z m-1335 -830 c-17 -148 -84 -280
-201 -396 -133 -132 -288 -197 -475 -197 -117 0 -198 20 -310 75 -120 58 -238
177 -298 299 -40 81 -71 191 -72 252 l0 27 681 0 682 0 -7 -60z m-1549 -33
c14 -107 53 -222 106 -317 58 -104 224 -269 327 -327 275 -153 606 -153 880 0
103 58 269 224 327 327 53 95 92 210 106 317 l11 83 518 0 518 0 0 -144 0
-144 -137 -4 c-117 -3 -144 -7 -179 -26 -57 -29 -87 -68 -119 -154 -15 -40
-46 -113 -68 -163 -33 -71 -41 -102 -41 -145 0 -75 20 -108 127 -218 l92 -92
-230 -230 c-126 -127 -234 -230 -240 -230 -6 0 -49 39 -95 86 -141 143 -193
154 -373 75 -62 -26 -136 -56 -166 -66 -72 -23 -133 -84 -149 -147 -7 -26 -12
-101 -12 -167 l0 -121 -329 0 -329 0 -4 143 c-3 123 -6 148 -26 184 -27 52
-73 87 -145 112 -30 11 -103 40 -161 65 -172 75 -226 64 -366 -78 -46 -47 -89
-86 -95 -86 -6 0 -114 103 -240 230 l-230 230 92 92 c107 110 127 143 127 218
0 43 -8 74 -41 145 -22 50 -53 123 -68 163 -32 86 -62 125 -119 154 -35 19
-62 23 -178 26 l-138 4 0 144 0 144 518 0 518 0 11 -83z"/>
</g>
</svg>
